HIERARCHY
ROOT RootJoint
{
    OFFSET   0.000000   0.000000   0.000000
    CHANNELS 6 Xposition Yposition Zposition Xrotation Yrotation Zrotation
    JOINT lHip
    {
        OFFSET   0.100000  -0.051395   0.000000
        CHANNELS 3 Xrotation Yrotation Zrotation
        JOINT lKnee
        {
            OFFSET   0.000000  -0.410000   0.000000
            CHANNELS 3 Xrotation Yrotation Zrotation
            JOINT lAnkle
            {
                OFFSET   0.000000  -0.390000   0.000000
                CHANNELS 3 Xrotation Yrotation Zrotation
                JOINT lToeJoint
                {
                    OFFSET   0.000000  -0.050000   0.130000
                    CHANNELS 3 Xrotation Yrotation Zrotation
                    End Site
                    {
                        OFFSET   0.010000   0.002000   0.060000
                    }
                }
            }
        }
    }
    JOINT pelvis_lowerback
    {
        OFFSET   0.000000   0.093605   0.000000
        CHANNELS 3 Xrotation Yrotation Zrotation
        JOINT lowerback_torso
        {
            OFFSET   0.000000   0.100000   0.000000
            CHANNELS 3 Xrotation Yrotation Zrotation
            JOINT lTorso_Clavicle
            {
                OFFSET   0.001000   0.157500   0.000000
                CHANNELS 3 Xrotation Yrotation Zrotation
                JOINT lShoulder
                {
                    OFFSET   0.117647   0.000000   0.000000
                    CHANNELS 3 Xrotation Yrotation Zrotation
                    JOINT lElbow
                    {
                        OFFSET   0.245000   0.000000   0.000000
                        CHANNELS 3 Xrotation Yrotation Zrotation
                        JOINT lWrist
                        {
                            OFFSET   0.240000   0.000000   0.000000
                            CHANNELS 3 Xrotation Yrotation Zrotation
                            End Site
                            {
                                OFFSET   0.116353  -0.002500   0.000000
                            }
                        }
                    }
                }
            }
            JOINT rTorso_Clavicle
            {
                OFFSET  -0.001000   0.157500   0.000000
                CHANNELS 3 Xrotation Yrotation Zrotation
                JOINT rShoulder
                {
                    OFFSET  -0.117647   0.000000   0.000000
                    CHANNELS 3 Xrotation Yrotation Zrotation
                    JOINT rElbow
                    {
                        OFFSET  -0.245000   0.000000   0.000000
                        CHANNELS 3 Xrotation Yrotation Zrotation
                        JOINT rWrist
                        {
                            OFFSET  -0.240000   0.000000   0.000000
                            CHANNELS 3 Xrotation Yrotation Zrotation
                            End Site
                            {
                                OFFSET  -0.116353  -0.002500   0.000000
                            }
                        }
                    }
                }
            }
            JOINT torso_head
            {
                OFFSET   0.000000   0.282350   0.000000
                CHANNELS 3 Xrotation Yrotation Zrotation
                End Site
                {
                    OFFSET   0.000000   0.192650   0.000000
                }
            }
        }
    }
    JOINT rHip
    {
        OFFSET  -0.100000  -0.051395   0.000000
        CHANNELS 3 Xrotation Yrotation Zrotation
        JOINT rKnee
        {
            OFFSET   0.000000  -0.410000   0.000000
            CHANNELS 3 Xrotation Yrotation Zrotation
            JOINT rAnkle
            {
                OFFSET   0.000000  -0.390000   0.000000
                CHANNELS 3 Xrotation Yrotation Zrotation
                JOINT rToeJoint
                {
                    OFFSET   0.000000  -0.050000   0.130000
                    CHANNELS 3 Xrotation Yrotation Zrotation
                    End Site
                    {
                        OFFSET  -0.010000   0.002000   0.060000
                    }
                }
            }
        }
    }
}
MOTION
Frames: 8
Frame Time:   0.008333
 -0.037114   0.900329   2.149795  -1.465460  -0.279036  -1.648354 -28.237100   9.262756   3.215672  67.321502   3.205792   2.582033   9.692101   2.300686   7.342564  -0.000362   0.002819  -0.002083   3.636335  -0.385830   1.014565   3.311157  -1.910586   0.169204   0.047060   7.116676 -19.756829  16.900046 -28.545586 -51.382037   0.228497 -11.175145   0.074957   5.119023   6.872817  -2.474560   3.803629   2.233473  21.084701   8.177003  40.374818  43.747780   0.229929  18.511957  -2.286148  -4.662668  -8.377830  -1.534018   2.310560   0.330215   0.268184  -7.580895   0.474786   6.919825  13.216603  -3.115419   4.222192  -4.565567  -0.665670  -9.749421  -0.002000  -0.000500   0.006000
 -0.038740   0.900394   2.158255  -1.437346  -0.639027  -1.611767 -29.200310   9.479597   3.179996  66.410665   3.149226   2.605754   8.098986   2.169084   7.686909  -0.000681   0.004410  -0.003541   3.689714  -0.425581   1.096924   3.292364  -1.815319  -0.088003  -0.064127   7.510419 -19.672839  17.073193 -27.973842 -51.717171   0.229782 -11.053571  -0.038977   5.564407   6.761624  -2.324891   3.906567   2.505711  21.164137   7.310577  40.765930  43.321213   0.231921  18.967982  -2.436292  -5.019877  -8.337621  -1.601140   2.298127   0.351965   0.307353  -6.830423   0.391582   6.890366  12.916057  -2.872060   4.121856  -5.002305  -0.506495  -9.398809  -0.001500  -0.000250   0.004000
 -0.040366   0.900459   2.166716  -1.409000  -0.999000  -1.575000 -30.164000   9.697000   3.148000  65.499900   3.092290   2.628570   6.506830   2.027970   8.027430  -0.001000   0.006000  -0.005000   3.743150  -0.465255   1.179320   3.274000  -1.719970  -0.345166  -0.176000   7.904000 -19.588000  17.249200 -27.403000 -52.052500   0.231313 -10.932000  -0.152866   6.009980   6.651590  -2.174390   4.009150   2.778090  21.243100   6.442860  41.161900  42.900000   0.235186  19.424000  -2.586870  -5.377000  -8.297000  -1.668000   2.285680   0.373707   0.346526  -6.080000   0.308000   6.862000  12.616000  -2.628180   4.022820  -5.440000  -0.350000  -9.047000  -0.001000   0.000000   0.002000
 -0.040338   0.900440   2.175674  -1.368578  -1.336381  -1.454394 -30.688810   9.612645   2.975087  63.833291   3.120489   2.286930   5.510950   1.954599   7.902577  -0.023251   0.006709  -0.075500   3.782654  -0.419860   1.264433   3.263483  -1.300823  -0.613135  -0.108636   7.891977 -19.623548  17.564803 -27.319143 -52.093720   0.237277 -10.917911  -0.241218   6.027298   6.748680  -2.219039   3.942687   2.743793  21.184682   5.645235  41.191364  43.079905   0.231239  19.624341  -2.692301  -5.173186  -8.083441  -1.772682   2.272389   0.356206   0.327369  -5.360484   0.493743   6.772230  12.276782  -2.487389   3.936729  -5.838047  -0.226083  -8.984036  -0.001500   0.000000   0.003250
 -0.040309   0.900421   2.184633  -1.327439  -1.673675  -1.333530 -31.213747   9.529855   2.801440  62.166827   3.158597   1.946246   4.514955   1.883407   7.776473  -0.045502   0.007445  -0.146001   3.822090  -0.374406   1.349513   3.254929  -0.881631  -0.880989  -0.041282   7.879913 -19.659081  17.880236 -27.235489 -52.135429   0.243263 -10.903832  -0.329567   6.044695   6.845757  -2.263727   3.876191   2.709564  21.126226   4.847143  41.218940  43.260416   0.227680  19.824688  -2.797849  -4.969084  -7.870253  -1.878076   2.259092   0.338709   0.308208  -4.640654   0.678344   6.680132  11.937812  -2.346092   3.851482  -6.236227  -0.102607  -8.920213  -0.002000   0.000000   0.004500
 -0.040281   0.900403   2.193591  -1.285581  -2.010882  -1.212402 -31.738811   9.448638   2.627073  60.500550   3.206582   1.606801   3.518845   1.814417   7.649154  -0.067751   0.008209  -0.216500   3.861459  -0.328894   1.434563   3.248335  -0.462404  -1.148758   0.026062   7.867807 -19.694598  18.195501 -27.152041 -52.177622   0.249271 -10.889761  -0.417914   6.062173   6.942820  -2.308454   3.809662   2.675403  21.067732   4.048615  41.244620  43.441495   0.224509  20.025042  -2.903518  -4.764690  -7.657438  -1.984181   2.245789   0.321217   0.289043  -3.920497   0.861772   6.585718  11.599086  -2.204294   3.767082  -6.634543   0.020423  -8.855533  -0.002500   0.000000   0.005750
 -0.040252   0.900384   2.202549  -1.243000  -2.348000  -1.091000 -32.264000   9.369000   2.452000  58.834500   3.264400   1.268880   2.522620   1.747650   7.520660  -0.090000   0.009000  -0.287000   3.900760  -0.283323   1.519580   3.243700  -0.043150  -1.416470   0.093397   7.855660 -19.730100  18.510600 -27.068800 -52.220300   0.255301 -10.875700  -0.506258   6.079730   7.039870  -2.353220   3.743100   2.641310  21.009200   3.249680  41.268400  43.623100   0.221727  20.225400  -3.009310  -4.560000  -7.445000  -2.091000   2.232480   0.303729   0.269874  -3.200000   1.044000   6.489000  11.260600  -2.062000   3.683530  -7.033000   0.143000  -8.790000  -0.003000   0.000000   0.007000
 -0.040067   0.899809   2.211678  -1.189698  -2.640374  -1.002946 -32.520344   9.301889   2.322415  56.541235   3.340191   0.914616   2.287420   1.764542   7.430367  -0.115503   0.010447  -0.366251   3.882168  -0.234739   1.612769   3.302198   0.326037  -1.635113   0.163014   7.826561 -19.792885  18.786836 -26.959972 -52.286066   0.258906 -10.941300  -0.511397   5.843656   7.164920  -2.649054   3.673498   2.631728  20.924341   2.504630  41.291757  43.882223   0.216519  20.394886  -3.126331  -4.391105  -7.266092  -2.240040   2.205250   0.288407   0.256624  -2.570863   1.572978   6.436495  11.046776  -2.165126   3.636467  -7.533844   0.086568  -8.727002  -0.004500  -0.000250   0.006000
